<?xml version="1.0" standalone="no"?>
<!DOCTYPE svg PUBLIC "-//W3C//DTD SVG 20010904//EN"
 "http://www.w3.org/TR/2001/REC-SVG-20010904/DTD/svg10.dtd">
<svg version="1.0" xmlns="http://www.w3.org/2000/svg"
 width="406.000000pt" height="470.000000pt" viewBox="0 0 406.000000 470.000000"
 preserveAspectRatio="xMidYMid meet">

<g transform="translate(0.000000,470.000000) scale(0.100000,-0.100000)"
fill="#000000" stroke="none">
<path d="M1825 3879 c-38 -5 -115 -20 -169 -34 -549 -140 -983 -575 -1120
-1122 -136 -545 28 -1110 436 -1498 163 -155 335 -263 543 -340 175 -65 259
-78 515 -78 197 0 237 2 320 22 135 31 210 57 329 112 172 81 289 165 441 318
191 192 295 352 373 578 65 185 77 266 77 508 0 245 -8 300 -71 490 -168 507
-584 883 -1127 1020 -118 30 -401 42 -547 24z m458 -169 c303 -59 524 -175
738 -389 126 -127 193 -219 269 -376 97 -198 133 -359 134 -595 0 -181 -17
-292 -70 -452 -52 -153 -46 -149 -135 -101 -41 22 -123 66 -184 98 -213 112
-520 277 -530 285 -5 5 -114 60 -241 123 l-231 115 -6 78 c-9 101 -9 1207 0
1229 5 15 16 17 82 11 42 -4 120 -16 174 -26z m-746 -477 c13 -33 14 -48 3
-107 -7 -37 -25 -93 -41 -122 -23 -44 -26 -60 -19 -80 23 -59 -3 -114 -55
-114 -50 0 -59 69 -19 138 25 43 26 48 15 99 -11 47 -10 60 9 117 35 107 79
135 107 69z m-300 -17 c3 -3 5 -40 4 -83 -3 -137 34 -343 67 -376 13 -12 41
-21 80 -26 68 -8 87 -20 106 -66 9 -22 26 -37 52 -48 60 -24 94 -66 111 -139
l15 -63 -69 -132 -68 -132 -85 -41 -85 -40 -12 27 c-22 49 5 155 62 243 40 62
43 91 15 137 -23 38 -54 57 -83 49 -27 -7 -84 -90 -93 -134 -7 -34 20 -122 37
-122 18 0 10 -87 -12 -114 -24 -31 -55 -33 -144 -8 -53 15 -62 22 -88 64 -21
34 -31 64 -34 111 l-5 63 81 82 c44 44 81 82 82 84 0 2 4 55 9 118 7 104 6
118 -11 146 -26 42 -47 317 -29 377 11 39 12 39 52 34 22 -3 42 -8 45 -11z
m589 -131 c5 -18 -13 -63 -70 -178 -42 -85 -85 -162 -95 -171 -24 -22 -58 -13
-73 19 -12 27 -6 40 62 130 27 36 57 89 66 121 29 92 95 139 110 79z m102
-297 c30 -30 -5 -85 -95 -146 -38 -27 -43 -27 -43 -2 0 39 53 129 84 144 38
19 39 19 54 4z m-1080 -82 c36 -18 57 -58 57 -107 0 -87 -57 -73 -113 29 -19
34 -31 69 -28 77 7 19 49 19 84 1z m902 -125 c0 -5 -7 -14 -15 -21 -12 -10
-15 -10 -15 2 0 8 3 18 7 21 9 10 23 9 23 -2z m453 -437 c319 -169 997 -553
997 -564 0 -15 -114 -155 -179 -220 -179 -177 -410 -307 -664 -371 -118 -30
-452 -39 -582 -14 -305 56 -601 229 -803 469 -73 86 -96 121 -88 135 3 4 54
36 113 71 278 162 426 247 648 375 132 76 269 155 305 176 36 21 66 38 68 39
2 0 85 -43 185 -96z"/>
<path d="M2651 3247 c-21 -10 -22 -15 -15 -57 4 -25 6 -79 5 -122 -1 -72 0
-77 26 -98 22 -18 37 -21 75 -18 62 6 96 30 120 84 23 53 16 86 -33 153 -49
66 -116 88 -178 58z"/>
<path d="M2434 3201 c-62 -28 -89 -73 -88 -146 1 -109 58 -184 131 -170 42 8
94 32 105 49 15 22 7 92 -15 141 -13 28 -27 64 -31 80 -8 33 -33 65 -50 65 -6
0 -29 -9 -52 -19z"/>
<path d="M3046 3026 c-13 -12 -37 -50 -54 -82 -16 -32 -37 -72 -46 -89 -19
-36 -20 -46 -4 -80 23 -52 108 -71 181 -40 62 26 85 129 51 228 -17 50 -54 87
-86 87 -10 0 -30 -11 -42 -24z"/>
<path d="M2184 2815 c-58 -62 -56 -145 4 -217 51 -60 111 -73 176 -35 82 46
95 101 38 156 -57 54 -157 131 -171 131 -7 0 -29 -16 -47 -35z"/>
<path d="M2690 2743 c-14 -2 -47 -11 -73 -20 -58 -18 -77 -52 -77 -137 0 -53
-2 -57 -51 -106 -46 -46 -50 -54 -44 -83 18 -83 89 -147 165 -147 117 1 371
50 404 79 51 45 95 201 67 235 -7 8 -27 18 -44 22 -62 13 -107 44 -143 98 -26
40 -43 55 -66 60 -32 6 -97 6 -138 -1z"/>
</g>
</svg>
